<svg width="256" height="260" viewBox="0 0 256 260" fill="none" xmlns="http://www.w3.org/2000/svg">
<rect x="1" y="1" width="254" height="258" rx="23" fill="#FCFCFD"/>
<rect x="1" y="1" width="254" height="258" rx="23" stroke="#F4F5F6" stroke-width="2"/>
<rect x="32" y="32" width="73" height="26" rx="13" fill="#E6E8EC"/>
<path d="M44.324 43.148V41.24H47.648V50H45.512V43.148H44.324ZM48.9797 48.356C49.2517 48.14 49.3757 48.04 49.3517 48.056C50.1357 47.408 50.7517 46.876 51.1997 46.46C51.6557 46.044 52.0397 45.608 52.3517 45.152C52.6637 44.696 52.8197 44.252 52.8197 43.82C52.8197 43.492 52.7437 43.236 52.5917 43.052C52.4397 42.868 52.2117 42.776 51.9077 42.776C51.6037 42.776 51.3637 42.892 51.1877 43.124C51.0197 43.348 50.9357 43.668 50.9357 44.084H48.9557C48.9717 43.404 49.1157 42.836 49.3877 42.38C49.6677 41.924 50.0317 41.588 50.4797 41.372C50.9357 41.156 51.4397 41.048 51.9917 41.048C52.9437 41.048 53.6597 41.292 54.1397 41.78C54.6277 42.268 54.8717 42.904 54.8717 43.688C54.8717 44.544 54.5797 45.34 53.9957 46.076C53.4117 46.804 52.6677 47.516 51.7637 48.212H55.0037V49.88H48.9797V48.356ZM57.3472 45.296C56.5952 44.896 56.2192 44.268 56.2192 43.412C56.2192 42.98 56.3312 42.588 56.5552 42.236C56.7792 41.876 57.1192 41.592 57.5752 41.384C58.0312 41.168 58.5912 41.06 59.2552 41.06C59.9192 41.06 60.4752 41.168 60.9232 41.384C61.3792 41.592 61.7192 41.876 61.9432 42.236C62.1672 42.588 62.2792 42.98 62.2792 43.412C62.2792 43.844 62.1752 44.22 61.9672 44.54C61.7672 44.86 61.4952 45.112 61.1512 45.296C61.5832 45.504 61.9152 45.792 62.1472 46.16C62.3792 46.52 62.4952 46.944 62.4952 47.432C62.4952 48 62.3512 48.492 62.0632 48.908C61.7752 49.316 61.3832 49.628 60.8872 49.844C60.3992 50.06 59.8552 50.168 59.2552 50.168C58.6552 50.168 58.1072 50.06 57.6112 49.844C57.1232 49.628 56.7352 49.316 56.4472 48.908C56.1592 48.492 56.0152 48 56.0152 47.432C56.0152 46.936 56.1312 46.508 56.3632 46.148C56.5952 45.78 56.9232 45.496 57.3472 45.296ZM60.2872 43.724C60.2872 43.396 60.1912 43.144 59.9992 42.968C59.8152 42.784 59.5672 42.692 59.2552 42.692C58.9432 42.692 58.6912 42.784 58.4992 42.968C58.3152 43.152 58.2232 43.408 58.2232 43.736C58.2232 44.048 58.3192 44.296 58.5112 44.48C58.7032 44.656 58.9512 44.744 59.2552 44.744C59.5592 44.744 59.8072 44.652 59.9992 44.468C60.1912 44.284 60.2872 44.036 60.2872 43.724ZM59.2552 46.184C58.8792 46.184 58.5752 46.288 58.3432 46.496C58.1112 46.696 57.9952 46.976 57.9952 47.336C57.9952 47.672 58.1072 47.948 58.3312 48.164C58.5632 48.38 58.8712 48.488 59.2552 48.488C59.6392 48.488 59.9392 48.38 60.1552 48.164C60.3792 47.948 60.4912 47.672 60.4912 47.336C60.4912 46.984 60.3752 46.704 60.1432 46.496C59.9192 46.288 59.6232 46.184 59.2552 46.184Z" fill="#23262F"/>
<path d="M52.772 141.156L51.404 137.051C51.2056 136.453 50.8238 135.934 50.3131 135.566C49.8024 135.197 49.1886 134.999 48.559 135H39.441C38.8114 134.999 38.1976 135.197 37.6869 135.566C37.1762 135.934 36.7944 136.453 36.596 137.051L35.228 141.156C34.8646 141.308 34.5543 141.565 34.3358 141.893C34.1174 142.221 34.0006 142.606 34 143V148C34 148.753 34.423 149.402 35.039 149.743C35.026 149.809 35 149.869 35 149.938V152C35 152.265 35.1054 152.52 35.2929 152.707C35.4804 152.895 35.7348 153 36 153H37C37.2652 153 37.5196 152.895 37.7071 152.707C37.8946 152.52 38 152.265 38 152V150H50V152C50 152.265 50.1054 152.52 50.2929 152.707C50.4804 152.895 50.7348 153 51 153H52C52.2652 153 52.5196 152.895 52.7071 152.707C52.8946 152.52 53 152.265 53 152V149.938C53 149.869 52.974 149.808 52.961 149.743C53.2744 149.572 53.5362 149.32 53.7189 149.014C53.9017 148.707 53.9988 148.357 54 148V143C54 142.171 53.492 141.459 52.772 141.156ZM36 148V143H52L52.002 148H36ZM39.441 137H48.558C48.989 137 49.371 137.274 49.507 137.684L50.613 141H37.387L38.492 137.684C38.5583 137.485 38.6857 137.312 38.856 137.189C39.0264 137.066 39.231 137 39.441 137V137Z" fill="#777E91"/>
<path d="M38.5 147C39.3284 147 40 146.328 40 145.5C40 144.672 39.3284 144 38.5 144C37.6716 144 37 144.672 37 145.5C37 146.328 37.6716 147 38.5 147Z" fill="#777E91"/>
<path d="M49.5 147C50.3284 147 51 146.328 51 145.5C51 144.672 50.3284 144 49.5 144C48.6716 144 48 144.672 48 145.5C48 146.328 48.6716 147 49.5 147Z" fill="#777E91"/>
<path d="M36.864 206.112C36.1173 206.112 35.4453 205.984 34.848 205.728C34.2507 205.461 33.7813 205.088 33.44 204.608C33.0987 204.128 32.928 203.568 32.928 202.928H34.88C34.9227 203.408 35.1093 203.803 35.44 204.112C35.7813 204.421 36.256 204.576 36.864 204.576C37.4933 204.576 37.984 204.427 38.336 204.128C38.688 203.819 38.864 203.424 38.864 202.944C38.864 202.571 38.752 202.267 38.528 202.032C38.3147 201.797 38.0427 201.616 37.712 201.488C37.392 201.36 36.944 201.221 36.368 201.072C35.6427 200.88 35.0507 200.688 34.592 200.496C34.144 200.293 33.76 199.984 33.44 199.568C33.12 199.152 32.96 198.597 32.96 197.904C32.96 197.264 33.12 196.704 33.44 196.224C33.76 195.744 34.208 195.376 34.784 195.12C35.36 194.864 36.0267 194.736 36.784 194.736C37.8613 194.736 38.7413 195.008 39.424 195.552C40.1173 196.085 40.5013 196.821 40.576 197.76H38.56C38.528 197.355 38.336 197.008 37.984 196.72C37.632 196.432 37.168 196.288 36.592 196.288C36.0693 196.288 35.6427 196.421 35.312 196.688C34.9813 196.955 34.816 197.339 34.816 197.84C34.816 198.181 34.9173 198.464 35.12 198.688C35.3333 198.901 35.6 199.072 35.92 199.2C36.24 199.328 36.6773 199.467 37.232 199.616C37.968 199.819 38.5653 200.021 39.024 200.224C39.4933 200.427 39.888 200.741 40.208 201.168C40.5387 201.584 40.704 202.144 40.704 202.848C40.704 203.413 40.5493 203.947 40.24 204.448C39.9413 204.949 39.4987 205.355 38.912 205.664C38.336 205.963 37.6533 206.112 36.864 206.112ZM46.6803 206.144C45.8483 206.144 45.0963 205.957 44.4243 205.584C43.7523 205.2 43.2243 204.667 42.8403 203.984C42.4563 203.291 42.2643 202.491 42.2643 201.584C42.2643 200.688 42.4616 199.893 42.8563 199.2C43.2509 198.507 43.7896 197.973 44.4723 197.6C45.1549 197.227 45.9176 197.04 46.7603 197.04C47.6029 197.04 48.3656 197.227 49.0483 197.6C49.7309 197.973 50.2696 198.507 50.6643 199.2C51.0589 199.893 51.2563 200.688 51.2563 201.584C51.2563 202.48 51.0536 203.275 50.6483 203.968C50.2429 204.661 49.6883 205.2 48.9843 205.584C48.2909 205.957 47.5229 206.144 46.6803 206.144ZM46.6803 204.56C47.1496 204.56 47.5869 204.448 47.9923 204.224C48.4083 204 48.7443 203.664 49.0003 203.216C49.2563 202.768 49.3843 202.224 49.3843 201.584C49.3843 200.944 49.2616 200.405 49.0163 199.968C48.7709 199.52 48.4456 199.184 48.0403 198.96C47.6349 198.736 47.1976 198.624 46.7283 198.624C46.2589 198.624 45.8216 198.736 45.4163 198.96C45.0216 199.184 44.7069 199.52 44.4723 199.968C44.2376 200.405 44.1203 200.944 44.1203 201.584C44.1203 202.533 44.3603 203.269 44.8403 203.792C45.3309 204.304 45.9443 204.56 46.6803 204.56ZM61.0434 197.184V206H59.2194V204.96C58.9314 205.323 58.5527 205.611 58.0834 205.824C57.6247 206.027 57.134 206.128 56.6114 206.128C55.918 206.128 55.294 205.984 54.7394 205.696C54.1954 205.408 53.7634 204.981 53.4434 204.416C53.134 203.851 52.9794 203.168 52.9794 202.368V197.184H54.7874V202.096C54.7874 202.885 54.9847 203.493 55.3794 203.92C55.774 204.336 56.3127 204.544 56.9954 204.544C57.678 204.544 58.2167 204.336 58.6114 203.92C59.0167 203.493 59.2194 202.885 59.2194 202.096V197.184H61.0434ZM65.578 198.672V203.552C65.578 203.883 65.6527 204.123 65.802 204.272C65.962 204.411 66.2287 204.48 66.602 204.48H67.722V206H66.282C65.4607 206 64.8313 205.808 64.394 205.424C63.9567 205.04 63.738 204.416 63.738 203.552V198.672H62.698V197.184H63.738V194.992H65.578V197.184H67.722V198.672H65.578ZM73.9631 197.04C74.6351 197.04 75.2325 197.184 75.7551 197.472C76.2885 197.76 76.7045 198.187 77.0031 198.752C77.3125 199.317 77.4671 200 77.4671 200.8V206H75.6591V201.072C75.6591 200.283 75.4618 199.68 75.0671 199.264C74.6725 198.837 74.1338 198.624 73.4511 198.624C72.7685 198.624 72.2245 198.837 71.8191 199.264C71.4245 199.68 71.2271 200.283 71.2271 201.072V206H69.4031V194.16H71.2271V198.208C71.5365 197.835 71.9258 197.547 72.3951 197.344C72.8751 197.141 73.3978 197.04 73.9631 197.04ZM93.534 194.88L89.358 206H87.246L83.054 194.88H85.006L88.302 204.128L91.614 194.88H93.534ZM95.9874 196.016C95.6567 196.016 95.3794 195.904 95.1554 195.68C94.9314 195.456 94.8194 195.179 94.8194 194.848C94.8194 194.517 94.9314 194.24 95.1554 194.016C95.3794 193.792 95.6567 193.68 95.9874 193.68C96.3074 193.68 96.5794 193.792 96.8034 194.016C97.0274 194.24 97.1394 194.517 97.1394 194.848C97.1394 195.179 97.0274 195.456 96.8034 195.68C96.5794 195.904 96.3074 196.016 95.9874 196.016ZM96.8834 197.184V206H95.0594V197.184H96.8834ZM101.102 198.464C101.369 198.016 101.721 197.669 102.158 197.424C102.606 197.168 103.134 197.04 103.742 197.04V198.928H103.278C102.563 198.928 102.019 199.109 101.646 199.472C101.283 199.835 101.102 200.464 101.102 201.36V206H99.2781V197.184H101.102V198.464ZM108.971 197.04C109.653 197.04 110.256 197.179 110.779 197.456C111.312 197.723 111.728 198.059 112.027 198.464V197.184H113.867V206.144C113.867 206.955 113.696 207.675 113.355 208.304C113.013 208.944 112.517 209.445 111.867 209.808C111.227 210.171 110.459 210.352 109.563 210.352C108.368 210.352 107.376 210.069 106.587 209.504C105.797 208.949 105.349 208.192 105.243 207.232H107.051C107.189 207.691 107.483 208.059 107.931 208.336C108.389 208.624 108.933 208.768 109.563 208.768C110.299 208.768 110.891 208.544 111.339 208.096C111.797 207.648 112.027 206.997 112.027 206.144V204.672C111.717 205.088 111.296 205.44 110.763 205.728C110.24 206.005 109.643 206.144 108.971 206.144C108.203 206.144 107.499 205.952 106.859 205.568C106.229 205.173 105.728 204.629 105.355 203.936C104.992 203.232 104.811 202.437 104.811 201.552C104.811 200.667 104.992 199.883 105.355 199.2C105.728 198.517 106.229 197.989 106.859 197.616C107.499 197.232 108.203 197.04 108.971 197.04ZM112.027 201.584C112.027 200.976 111.899 200.448 111.643 200C111.397 199.552 111.072 199.211 110.667 198.976C110.261 198.741 109.824 198.624 109.355 198.624C108.885 198.624 108.448 198.741 108.043 198.976C107.637 199.2 107.307 199.536 107.051 199.984C106.805 200.421 106.683 200.944 106.683 201.552C106.683 202.16 106.805 202.693 107.051 203.152C107.307 203.611 107.637 203.963 108.043 204.208C108.459 204.443 108.896 204.56 109.355 204.56C109.824 204.56 110.261 204.443 110.667 204.208C111.072 203.973 111.397 203.632 111.643 203.184C111.899 202.725 112.027 202.192 112.027 201.584ZM117.191 196.016C116.86 196.016 116.583 195.904 116.359 195.68C116.135 195.456 116.023 195.179 116.023 194.848C116.023 194.517 116.135 194.24 116.359 194.016C116.583 193.792 116.86 193.68 117.191 193.68C117.511 193.68 117.783 193.792 118.007 194.016C118.231 194.24 118.343 194.517 118.343 194.848C118.343 195.179 118.231 195.456 118.007 195.68C117.783 195.904 117.511 196.016 117.191 196.016ZM118.087 197.184V206H116.263V197.184H118.087ZM122.305 194.16V206H120.481V194.16H122.305ZM126.524 194.16V206H124.7V194.16H126.524ZM128.311 201.552C128.311 200.667 128.492 199.883 128.855 199.2C129.228 198.517 129.729 197.989 130.359 197.616C130.999 197.232 131.703 197.04 132.471 197.04C133.164 197.04 133.767 197.179 134.279 197.456C134.801 197.723 135.217 198.059 135.527 198.464V197.184H137.367V206H135.527V204.688C135.217 205.104 134.796 205.451 134.263 205.728C133.729 206.005 133.121 206.144 132.439 206.144C131.681 206.144 130.988 205.952 130.359 205.568C129.729 205.173 129.228 204.629 128.855 203.936C128.492 203.232 128.311 202.437 128.311 201.552ZM135.527 201.584C135.527 200.976 135.399 200.448 135.143 200C134.897 199.552 134.572 199.211 134.167 198.976C133.761 198.741 133.324 198.624 132.855 198.624C132.385 198.624 131.948 198.741 131.543 198.976C131.137 199.2 130.807 199.536 130.551 199.984C130.305 200.421 130.183 200.944 130.183 201.552C130.183 202.16 130.305 202.693 130.551 203.152C130.807 203.611 131.137 203.963 131.543 204.208C131.959 204.443 132.396 204.56 132.855 204.56C133.324 204.56 133.761 204.443 134.167 204.208C134.572 203.973 134.897 203.632 135.143 203.184C135.399 202.725 135.527 202.192 135.527 201.584ZM144.211 197.04C144.904 197.04 145.523 197.184 146.067 197.472C146.621 197.76 147.053 198.187 147.363 198.752C147.672 199.317 147.827 200 147.827 200.8V206H146.019V201.072C146.019 200.283 145.821 199.68 145.427 199.264C145.032 198.837 144.493 198.624 143.811 198.624C143.128 198.624 142.584 198.837 142.179 199.264C141.784 199.68 141.587 200.283 141.587 201.072V206H139.763V197.184H141.587V198.192C141.885 197.829 142.264 197.547 142.723 197.344C143.192 197.141 143.688 197.04 144.211 197.04ZM149.545 201.552C149.545 200.667 149.726 199.883 150.089 199.2C150.462 198.517 150.964 197.989 151.593 197.616C152.233 197.232 152.942 197.04 153.721 197.04C154.297 197.04 154.862 197.168 155.417 197.424C155.982 197.669 156.43 198 156.761 198.416V194.16H158.601V206H156.761V204.672C156.462 205.099 156.046 205.451 155.513 205.728C154.99 206.005 154.388 206.144 153.705 206.144C152.937 206.144 152.233 205.952 151.593 205.568C150.964 205.173 150.462 204.629 150.089 203.936C149.726 203.232 149.545 202.437 149.545 201.552ZM156.761 201.584C156.761 200.976 156.633 200.448 156.377 200C156.132 199.552 155.806 199.211 155.401 198.976C154.996 198.741 154.558 198.624 154.089 198.624C153.62 198.624 153.182 198.741 152.777 198.976C152.372 199.2 152.041 199.536 151.785 199.984C151.54 200.421 151.417 200.944 151.417 201.552C151.417 202.16 151.54 202.693 151.785 203.152C152.041 203.611 152.372 203.963 152.777 204.208C153.193 204.443 153.63 204.56 154.089 204.56C154.558 204.56 154.996 204.443 155.401 204.208C155.806 203.973 156.132 203.632 156.377 203.184C156.633 202.725 156.761 202.192 156.761 201.584Z" fill="#23262F"/>
<path d="M37.652 221.636V222.524H34.016V225.344H36.968V226.232H34.016V230H32.924V221.636H37.652ZM40.0629 224.492C40.2549 224.116 40.5269 223.824 40.8789 223.616C41.2389 223.408 41.6749 223.304 42.1869 223.304V224.432H41.8989C40.6749 224.432 40.0629 225.096 40.0629 226.424V230H38.9709V223.424H40.0629V224.492ZM46.3154 230.108C45.6994 230.108 45.1394 229.968 44.6354 229.688C44.1394 229.408 43.7474 229.012 43.4594 228.5C43.1794 227.98 43.0394 227.38 43.0394 226.7C43.0394 226.028 43.1834 225.436 43.4714 224.924C43.7674 224.404 44.1674 224.008 44.6714 223.736C45.1754 223.456 45.7394 223.316 46.3634 223.316C46.9874 223.316 47.5514 223.456 48.0554 223.736C48.5594 224.008 48.9554 224.4 49.2434 224.912C49.5394 225.424 49.6874 226.02 49.6874 226.7C49.6874 227.38 49.5354 227.98 49.2314 228.5C48.9354 229.012 48.5314 229.408 48.0194 229.688C47.5074 229.968 46.9394 230.108 46.3154 230.108ZM46.3154 229.148C46.7074 229.148 47.0754 229.056 47.4194 228.872C47.7634 228.688 48.0394 228.412 48.2474 228.044C48.4634 227.676 48.5714 227.228 48.5714 226.7C48.5714 226.172 48.4674 225.724 48.2594 225.356C48.0514 224.988 47.7794 224.716 47.4434 224.54C47.1074 224.356 46.7434 224.264 46.3514 224.264C45.9514 224.264 45.5834 224.356 45.2474 224.54C44.9194 224.716 44.6554 224.988 44.4554 225.356C44.2554 225.724 44.1554 226.172 44.1554 226.7C44.1554 227.236 44.2514 227.688 44.4434 228.056C44.6434 228.424 44.9074 228.7 45.2354 228.884C45.5634 229.06 45.9234 229.148 46.3154 229.148ZM59.0312 223.304C59.5432 223.304 59.9992 223.412 60.3992 223.628C60.7992 223.836 61.1152 224.152 61.3472 224.576C61.5792 225 61.6952 225.516 61.6952 226.124V230H60.6152V226.28C60.6152 225.624 60.4512 225.124 60.1232 224.78C59.8032 224.428 59.3672 224.252 58.8152 224.252C58.2472 224.252 57.7952 224.436 57.4592 224.804C57.1232 225.164 56.9552 225.688 56.9552 226.376V230H55.8752V226.28C55.8752 225.624 55.7112 225.124 55.3832 224.78C55.0632 224.428 54.6272 224.252 54.0752 224.252C53.5072 224.252 53.0552 224.436 52.7192 224.804C52.3832 225.164 52.2152 225.688 52.2152 226.376V230H51.1232V223.424H52.2152V224.372C52.4312 224.028 52.7192 223.764 53.0792 223.58C53.4472 223.396 53.8512 223.304 54.2912 223.304C54.8432 223.304 55.3312 223.428 55.7552 223.676C56.1792 223.924 56.4952 224.288 56.7032 224.768C56.8872 224.304 57.1912 223.944 57.6152 223.688C58.0392 223.432 58.5112 223.304 59.0312 223.304ZM71.0897 230L69.0977 226.58H67.7777V230H66.6857V221.636H69.3857C70.0177 221.636 70.5497 221.744 70.9817 221.96C71.4217 222.176 71.7497 222.468 71.9657 222.836C72.1817 223.204 72.2897 223.624 72.2897 224.096C72.2897 224.672 72.1217 225.18 71.7857 225.62C71.4577 226.06 70.9617 226.352 70.2977 226.496L72.3977 230H71.0897ZM67.7777 225.704H69.3857C69.9777 225.704 70.4217 225.56 70.7177 225.272C71.0137 224.976 71.1617 224.584 71.1617 224.096C71.1617 223.6 71.0137 223.216 70.7177 222.944C70.4297 222.672 69.9857 222.536 69.3857 222.536H67.7777V225.704ZM76.3145 230.108C75.8105 230.108 75.3585 230.024 74.9585 229.856C74.5585 229.68 74.2425 229.44 74.0105 229.136C73.7785 228.824 73.6505 228.468 73.6265 228.068H74.7545C74.7865 228.396 74.9385 228.664 75.2105 228.872C75.4905 229.08 75.8545 229.184 76.3025 229.184C76.7185 229.184 77.0465 229.092 77.2865 228.908C77.5265 228.724 77.6465 228.492 77.6465 228.212C77.6465 227.924 77.5185 227.712 77.2625 227.576C77.0065 227.432 76.6105 227.292 76.0745 227.156C75.5865 227.028 75.1865 226.9 74.8745 226.772C74.5705 226.636 74.3065 226.44 74.0825 226.184C73.8665 225.92 73.7585 225.576 73.7585 225.152C73.7585 224.816 73.8585 224.508 74.0585 224.228C74.2585 223.948 74.5425 223.728 74.9105 223.568C75.2785 223.4 75.6985 223.316 76.1705 223.316C76.8985 223.316 77.4865 223.5 77.9345 223.868C78.3825 224.236 78.6225 224.74 78.6545 225.38H77.5625C77.5385 225.036 77.3985 224.76 77.1425 224.552C76.8945 224.344 76.5585 224.24 76.1345 224.24C75.7425 224.24 75.4305 224.324 75.1985 224.492C74.9665 224.66 74.8505 224.88 74.8505 225.152C74.8505 225.368 74.9185 225.548 75.0545 225.692C75.1985 225.828 75.3745 225.94 75.5825 226.028C75.7985 226.108 76.0945 226.2 76.4705 226.304C76.9425 226.432 77.3265 226.56 77.6225 226.688C77.9185 226.808 78.1705 226.992 78.3785 227.24C78.5945 227.488 78.7065 227.812 78.7145 228.212C78.7145 228.572 78.6145 228.896 78.4145 229.184C78.2145 229.472 77.9305 229.7 77.5625 229.868C77.2025 230.028 76.7865 230.108 76.3145 230.108ZM80.604 230.072C80.396 230.072 80.22 230 80.076 229.856C79.932 229.712 79.86 229.536 79.86 229.328C79.86 229.12 79.932 228.944 80.076 228.8C80.22 228.656 80.396 228.584 80.604 228.584C80.804 228.584 80.972 228.656 81.108 228.8C81.252 228.944 81.324 229.12 81.324 229.328C81.324 229.536 81.252 229.712 81.108 229.856C80.972 230 80.804 230.072 80.604 230.072ZM85.5068 222.32V221.324H87.7628V230H86.6588V222.32H85.5068ZM90.9465 228.488L89.6025 231.716H88.8705L89.7465 228.488H90.9465ZM91.7534 228.068V227.24L95.9654 221.408H97.2734V227.12H98.4734V228.068H97.2734V230H96.1934V228.068H91.7534ZM96.2414 222.548L93.0134 227.12H96.2414V222.548ZM104.4 223.388C104.224 222.5 103.676 222.056 102.756 222.056C102.044 222.056 101.512 222.332 101.16 222.884C100.808 223.428 100.636 224.328 100.644 225.584C100.828 225.168 101.132 224.844 101.556 224.612C101.988 224.372 102.468 224.252 102.996 224.252C103.82 224.252 104.476 224.508 104.964 225.02C105.46 225.532 105.708 226.24 105.708 227.144C105.708 227.688 105.6 228.176 105.384 228.608C105.176 229.04 104.856 229.384 104.424 229.64C104 229.896 103.484 230.024 102.876 230.024C102.052 230.024 101.408 229.84 100.944 229.472C100.48 229.104 100.156 228.596 99.9723 227.948C99.7883 227.3 99.6963 226.5 99.6963 225.548C99.6963 222.612 100.72 221.144 102.768 221.144C103.552 221.144 104.168 221.356 104.616 221.78C105.064 222.204 105.328 222.74 105.408 223.388H104.4ZM102.768 225.176C102.424 225.176 102.1 225.248 101.796 225.392C101.492 225.528 101.244 225.74 101.052 226.028C100.868 226.308 100.776 226.652 100.776 227.06C100.776 227.668 100.952 228.164 101.304 228.548C101.656 228.924 102.16 229.112 102.816 229.112C103.376 229.112 103.82 228.94 104.148 228.596C104.484 228.244 104.652 227.772 104.652 227.18C104.652 226.556 104.492 226.068 104.172 225.716C103.852 225.356 103.384 225.176 102.768 225.176ZM106.894 222.32V221.324H109.15V230H108.046V222.32H106.894ZM115.496 224.636C115.712 224.26 116.032 223.948 116.456 223.7C116.888 223.444 117.388 223.316 117.956 223.316C118.54 223.316 119.068 223.456 119.54 223.736C120.02 224.016 120.396 224.412 120.668 224.924C120.94 225.428 121.076 226.016 121.076 226.688C121.076 227.352 120.94 227.944 120.668 228.464C120.396 228.984 120.02 229.388 119.54 229.676C119.068 229.964 118.54 230.108 117.956 230.108C117.396 230.108 116.9 229.984 116.468 229.736C116.044 229.48 115.72 229.164 115.496 228.788V233.12H114.404V223.424H115.496V224.636ZM119.96 226.688C119.96 226.192 119.86 225.76 119.66 225.392C119.46 225.024 119.188 224.744 118.844 224.552C118.508 224.36 118.136 224.264 117.728 224.264C117.328 224.264 116.956 224.364 116.612 224.564C116.276 224.756 116.004 225.04 115.796 225.416C115.596 225.784 115.496 226.212 115.496 226.7C115.496 227.196 115.596 227.632 115.796 228.008C116.004 228.376 116.276 228.66 116.612 228.86C116.956 229.052 117.328 229.148 117.728 229.148C118.136 229.148 118.508 229.052 118.844 228.86C119.188 228.66 119.46 228.376 119.66 228.008C119.86 227.632 119.96 227.192 119.96 226.688ZM128.514 226.46C128.514 226.668 128.502 226.888 128.478 227.12H123.222C123.262 227.768 123.482 228.276 123.882 228.644C124.29 229.004 124.782 229.184 125.358 229.184C125.83 229.184 126.222 229.076 126.534 228.86C126.854 228.636 127.078 228.34 127.206 227.972H128.382C128.206 228.604 127.854 229.12 127.326 229.52C126.798 229.912 126.142 230.108 125.358 230.108C124.734 230.108 124.174 229.968 123.678 229.688C123.19 229.408 122.806 229.012 122.526 228.5C122.246 227.98 122.106 227.38 122.106 226.7C122.106 226.02 122.242 225.424 122.514 224.912C122.786 224.4 123.166 224.008 123.654 223.736C124.15 223.456 124.718 223.316 125.358 223.316C125.982 223.316 126.534 223.452 127.014 223.724C127.494 223.996 127.862 224.372 128.118 224.852C128.382 225.324 128.514 225.86 128.514 226.46ZM127.386 226.232C127.386 225.816 127.294 225.46 127.11 225.164C126.926 224.86 126.674 224.632 126.354 224.48C126.042 224.32 125.694 224.24 125.31 224.24C124.758 224.24 124.286 224.416 123.894 224.768C123.51 225.12 123.29 225.608 123.234 226.232H127.386ZM131.047 224.492C131.239 224.116 131.511 223.824 131.863 223.616C132.223 223.408 132.659 223.304 133.171 223.304V224.432H132.883C131.659 224.432 131.047 225.096 131.047 226.424V230H129.955V223.424H131.047V224.492ZM137.223 226.688C137.223 226.016 137.359 225.428 137.631 224.924C137.903 224.412 138.275 224.016 138.747 223.736C139.227 223.456 139.763 223.316 140.355 223.316C140.867 223.316 141.343 223.436 141.783 223.676C142.223 223.908 142.559 224.216 142.791 224.6V221.12H143.895V230H142.791V228.764C142.575 229.156 142.255 229.48 141.831 229.736C141.407 229.984 140.911 230.108 140.343 230.108C139.759 230.108 139.227 229.964 138.747 229.676C138.275 229.388 137.903 228.984 137.631 228.464C137.359 227.944 137.223 227.352 137.223 226.688ZM142.791 226.7C142.791 226.204 142.691 225.772 142.491 225.404C142.291 225.036 142.019 224.756 141.675 224.564C141.339 224.364 140.967 224.264 140.559 224.264C140.151 224.264 139.779 224.36 139.443 224.552C139.107 224.744 138.839 225.024 138.639 225.392C138.439 225.76 138.339 226.192 138.339 226.688C138.339 227.192 138.439 227.632 138.639 228.008C138.839 228.376 139.107 228.66 139.443 228.86C139.779 229.052 140.151 229.148 140.559 229.148C140.967 229.148 141.339 229.052 141.675 228.86C142.019 228.66 142.291 228.376 142.491 228.008C142.691 227.632 142.791 227.196 142.791 226.7ZM145.332 226.688C145.332 226.016 145.468 225.428 145.74 224.924C146.012 224.412 146.384 224.016 146.856 223.736C147.336 223.456 147.868 223.316 148.452 223.316C149.028 223.316 149.528 223.44 149.952 223.688C150.376 223.936 150.692 224.248 150.9 224.624V223.424H152.004V230H150.9V228.776C150.684 229.16 150.36 229.48 149.928 229.736C149.504 229.984 149.008 230.108 148.44 230.108C147.856 230.108 147.328 229.964 146.856 229.676C146.384 229.388 146.012 228.984 145.74 228.464C145.468 227.944 145.332 227.352 145.332 226.688ZM150.9 226.7C150.9 226.204 150.8 225.772 150.6 225.404C150.4 225.036 150.128 224.756 149.784 224.564C149.448 224.364 149.076 224.264 148.668 224.264C148.26 224.264 147.888 224.36 147.552 224.552C147.216 224.744 146.948 225.024 146.748 225.392C146.548 225.76 146.448 226.192 146.448 226.688C146.448 227.192 146.548 227.632 146.748 228.008C146.948 228.376 147.216 228.66 147.552 228.86C147.888 229.052 148.26 229.148 148.668 229.148C149.076 229.148 149.448 229.052 149.784 228.86C150.128 228.66 150.4 228.376 150.6 228.008C150.8 227.632 150.9 227.196 150.9 226.7ZM159.514 223.424L155.554 233.096H154.426L155.722 229.928L153.07 223.424H154.282L156.346 228.752L158.386 223.424H159.514Z" fill="#777E91"/>
</svg>
